<svg width="29" height="29" viewBox="0 0 29 29" fill="none" xmlns="http://www.w3.org/2000/svg">
<path d="M11.4242 4.29883C10.5404 4.29883 9.73242 4.79817 9.33717 5.58866L8.81542 6.63216H7.20313C5.27013 6.63216 3.70312 8.19917 3.70312 10.1322V21.7988C3.70312 23.7318 5.27013 25.2988 7.20313 25.2988H21.2031C23.1361 25.2988 24.7031 23.7318 24.7031 21.7988V10.1322C24.7031 8.19917 23.1361 6.63216 21.2031 6.63216H19.5908L19.0691 5.58866C18.6738 4.79817 17.8659 4.29883 16.9821 4.29883H11.4242Z" fill="#12131A" fill-opacity="0.25"/>
<path fill-rule="evenodd" clip-rule="evenodd" d="M14.2018 18.2988C15.4905 18.2988 16.5352 17.2542 16.5352 15.9655C16.5352 14.6768 15.4905 13.6322 14.2018 13.6322C12.9132 13.6322 11.8685 14.6768 11.8685 15.9655C11.8685 17.2542 12.9132 18.2988 14.2018 18.2988ZM14.2018 20.6322C16.7792 20.6322 18.8685 18.5428 18.8685 15.9655C18.8685 13.3882 16.7792 11.2988 14.2018 11.2988C11.6245 11.2988 9.53516 13.3882 9.53516 15.9655C9.53516 18.5428 11.6245 20.6322 14.2018 20.6322Z" fill="#12131A"/>
</svg>
