<svg width="20" height="21" viewBox="0 0 20 21" fill="none" xmlns="http://www.w3.org/2000/svg">
<g opacity="0.4">
<path fill-rule="evenodd" clip-rule="evenodd" d="M9.99935 3.83366C6.31745 3.83366 3.33268 6.81843 3.33268 10.5003C3.33268 14.1822 6.31745 17.167 9.99935 17.167C13.6812 17.167 16.666 14.1822 16.666 10.5003C16.666 6.81843 13.6812 3.83366 9.99935 3.83366ZM1.66602 10.5003C1.66602 5.89795 5.39698 2.16699 9.99935 2.16699C14.6017 2.16699 18.3327 5.89795 18.3327 10.5003C18.3327 15.1027 14.6017 18.8337 9.99935 18.8337C5.39698 18.8337 1.66602 15.1027 1.66602 10.5003Z" fill="#12131A"/>
<path fill-rule="evenodd" clip-rule="evenodd" d="M6.91009 9.07709C7.23553 8.75165 7.76317 8.75165 8.0886 9.07709L9.99935 10.9878L11.9101 9.07709C12.2355 8.75165 12.7632 8.75165 13.0886 9.07709C13.414 9.40252 13.414 9.93016 13.0886 10.2556L10.5886 12.7556C10.2632 13.081 9.73553 13.081 9.41009 12.7556L6.91009 10.2556C6.58466 9.93016 6.58466 9.40252 6.91009 9.07709Z" fill="#12131A"/>
</g>
</svg>
