<svg width="22" height="26" viewBox="0 0 22 26" fill="none" xmlns="http://www.w3.org/2000/svg">
<path d="M0.33028 5.85605C-0.121032 6.28535 -0.099017 6.92379 0.33028 7.33108L5.99921 12.8789C6.19734 13.0771 6.48354 13.1981 6.72571 13.1981C7.30911 13.1981 7.70539 12.7909 7.70539 12.2185C7.70539 11.9433 7.60632 11.7231 7.41919 11.536L5.05255 9.2464L3.00513 7.47417L5.54789 7.58425H20.2541C20.8265 7.58425 21.2338 7.17697 21.2338 6.59356C21.2338 6.02117 20.8265 5.61389 20.2541 5.61389H5.54789L3.00513 5.71296L5.05255 3.95174L7.41919 1.65114C7.60632 1.46401 7.70539 1.25487 7.70539 0.968671C7.70539 0.396274 7.30911 0 6.72571 0C6.48354 0 6.19734 0.110076 5.99921 0.308213L0.33028 5.85605ZM20.9145 20.1439C21.3548 19.7147 21.3438 19.0762 20.9145 18.6579L15.2456 13.1101C15.0475 12.9229 14.7613 12.8019 14.5081 12.8019C13.9247 12.8019 13.5394 13.1981 13.5394 13.7705C13.5394 14.0567 13.6275 14.2769 13.8146 14.453L16.1923 16.7536L18.2397 18.5258L15.6969 18.4158H0.990737C0.418341 18.4158 5.15843e-05 18.823 5.15843e-05 19.3954C5.15843e-05 19.9788 0.418341 20.3861 0.990737 20.3861H15.6969L18.2397 20.276L16.1923 22.0483L13.8146 24.3379C13.6275 24.525 13.5394 24.7451 13.5394 25.0313C13.5394 25.6037 13.9247 26 14.5081 26C14.7613 26 15.0475 25.8789 15.2456 25.6918L20.9145 20.1439Z" fill="#0077FF"/>
</svg>
