<svg width="28" height="25" viewBox="0 0 28 25" fill="none" xmlns="http://www.w3.org/2000/svg">
<path d="M6.02933 24.6364H21.9003C23.566 24.6364 24.5396 23.6862 24.5396 22.044V10.7713L26.1701 12.1437C26.4047 12.3431 26.6745 12.5191 27.0029 12.5191C27.5543 12.5191 28 12.1789 28 11.6158C28 11.2639 27.8827 11.0293 27.6364 10.8182L24.5396 8.21408V3.35777C24.5396 2.84164 24.2111 2.5132 23.695 2.5132H22.4399C21.9355 2.5132 21.5953 2.84164 21.5953 3.35777V5.73901L15.4252 0.554252C14.5572 -0.184751 13.478 -0.184751 12.5982 0.554252L0.375367 10.8182C0.117302 11.0293 0 11.3109 0 11.5807C0 12.0616 0.375367 12.5191 1.0088 12.5191C1.33724 12.5191 1.60704 12.3431 1.85337 12.1437L3.3783 10.8534V22.044C3.3783 23.6862 4.35191 24.6364 6.02933 24.6364ZM17.3842 14.8886C17.3842 14.349 17.0323 13.9971 16.4927 13.9971H11.5191C10.9677 13.9971 10.6158 14.349 10.6158 14.8886V22.7478H6.42815C5.67742 22.7478 5.26686 22.3255 5.26686 21.5631V9.2698L13.5953 2.29032C13.8534 2.05572 14.1701 2.05572 14.4282 2.29032L22.651 9.18769V21.5631C22.651 22.3255 22.2405 22.7478 21.5015 22.7478H17.3842V14.8886Z" fill="#0373F3"/>
</svg>
