<svg width="24" height="25" viewBox="0 0 24 25" fill="none" xmlns="http://www.w3.org/2000/svg">
<path d="M12 2.5C7.02944 2.5 3 6.52944 3 11.5C3 14.5264 4.80977 17.0918 6.89505 18.899L10.3365 21.8816C11.2912 22.709 12.7088 22.709 13.6635 21.8816L17.1049 18.899C19.1902 17.0918 21 14.5264 21 11.5C21 6.52944 16.9706 2.5 12 2.5Z" fill="#12131A" fill-opacity="0.25"/>
<path d="M14 11.5C14 12.6046 13.1046 13.5 12 13.5C10.8954 13.5 10 12.6046 10 11.5C10 10.3954 10.8954 9.5 12 9.5C13.1046 9.5 14 10.3954 14 11.5Z" fill="#12131A"/>
</svg>
