<svg width="14" height="17" viewBox="0 0 14 17" fill="none" xmlns="http://www.w3.org/2000/svg">
<path fill-rule="evenodd" clip-rule="evenodd" d="M10.008 16.6219H2.00159C0.896144 16.6219 0 15.7257 0 14.6203V2.61072C0 1.50528 0.896144 0.609131 2.00159 0.609131H10.008C11.1134 0.609131 12.0096 1.50528 12.0096 2.61072V3.27792C12.0096 3.64641 11.7108 3.94512 11.3424 3.94512C10.9739 3.94512 10.6752 3.64641 10.6752 3.27792V2.61072C10.6752 2.24224 10.3765 1.94353 10.008 1.94353H2.00159C1.63311 1.94353 1.3344 2.24224 1.3344 2.61072V14.6203C1.3344 14.9888 1.63311 15.2875 2.00159 15.2875H10.008C10.3765 15.2875 10.6752 14.9888 10.6752 14.6203V13.9531C10.6752 13.5846 10.9739 13.2859 11.3424 13.2859C11.7108 13.2859 12.0096 13.5846 12.0096 13.9531V14.6203C12.0096 15.7257 11.1134 16.6219 10.008 16.6219ZM13.9373 8.91574C14.0385 8.69869 14.0156 8.44405 13.8773 8.24855L11.8757 5.57976C11.6546 5.28497 11.2364 5.22523 10.9416 5.44632C10.6468 5.66741 10.5871 6.08561 10.8082 6.38039L12.0091 7.94831H6.00436C5.63588 7.94831 5.33716 8.24702 5.33716 8.61551C5.33716 8.98399 5.63588 9.2827 6.00436 9.2827H13.3435C13.5948 9.28194 13.8243 9.14011 13.9373 8.91574ZM11.8763 11.6846L12.3767 11.0174C12.5978 10.7226 12.5381 10.3044 12.2433 10.0833C11.9485 9.8622 11.5303 9.92194 11.3092 10.2167L10.8088 10.8839C10.5877 11.1787 10.6475 11.5969 10.9423 11.818C11.2371 12.0391 11.6553 11.9793 11.8763 11.6846ZM11.5961 11.8982C11.6769 11.8643 11.7513 11.8169 11.8163 11.7581C11.845 11.7264 11.8717 11.693 11.8963 11.658C11.9216 11.6208 11.9418 11.5804 11.9564 11.5379C11.9755 11.5001 11.989 11.4596 11.9964 11.4178C11.9996 11.3734 11.9996 11.3288 11.9964 11.2844C11.994 11.1077 11.9248 10.9385 11.8029 10.8107C11.738 10.7518 11.6635 10.7045 11.5828 10.6706C11.4606 10.6191 11.3259 10.6051 11.1958 10.6305C11.154 10.6377 11.1135 10.6512 11.0757 10.6706C11.0347 10.6839 10.9963 10.7042 10.9623 10.7306L10.8555 10.8107C10.7336 10.9385 10.6645 11.1077 10.662 11.2844C10.661 11.4617 10.7306 11.6322 10.8555 11.7581L10.9623 11.8382C10.9963 11.8646 11.0347 11.8849 11.0757 11.8982L11.1958 11.9382H11.3292C11.42 11.9432 11.5108 11.9296 11.5961 11.8982Z" fill="#0373F3"/>
</svg>
