<svg width="27" height="28" viewBox="0 0 27 28" fill="none" xmlns="http://www.w3.org/2000/svg">
<path d="M13.2139 14.0151C16.8122 14.0151 19.7452 10.8099 19.7452 6.90929C19.7452 3.03888 16.8273 0 13.2139 0C9.63071 0 6.68254 3.09935 6.68254 6.93952C6.69765 10.8251 9.61559 14.0151 13.2139 14.0151ZM13.2139 11.7322C11.0065 11.7322 9.11667 9.61555 9.11667 6.93952C9.11667 4.30886 10.9763 2.28294 13.2139 2.28294C15.4666 2.28294 17.3111 4.27862 17.3111 6.90929C17.3111 9.58531 15.4364 11.7322 13.2139 11.7322ZM3.70412 28H22.7085C25.2183 28 26.4126 27.2441 26.4126 25.581C26.4126 21.6199 21.4083 15.8898 13.2139 15.8898C5.00434 15.8898 0 21.6199 0 25.581C0 27.2441 1.19439 28 3.70412 28ZM2.99353 25.7171C2.60044 25.7171 2.43414 25.6112 2.43414 25.2937C2.43414 22.8143 6.27433 18.1728 13.2139 18.1728C20.1383 18.1728 23.9785 22.8143 23.9785 25.2937C23.9785 25.6112 23.8273 25.7171 23.4342 25.7171H2.99353Z" fill="#0077FF"/>
</svg>
